Coordinates
version=1
nRows=16
nColumns=36
inDegrees=yes

Units are S.I. units (second, meters, Newtons, ...)
If the header above contains a line with 'inDegrees', this indicates whether rotational values are in degrees (yes) or radians (no).

endheader
time	pelvis_tilt	pelvis_list	pelvis_rotation	pelvis_tx	pelvis_ty	pelvis_tz	hip_flexion_r	hip_adduction_r	hip_rotation_r	knee_angle_r	knee_angle_r_beta	ankle_angle_r	subtalar_angle_r	mtp_angle_r	hip_flexion_l	hip_adduction_l	hip_rotation_l	knee_angle_l	knee_angle_l_beta	ankle_angle_l	subtalar_angle_l	mtp_angle_l	lumbar_extension	lumbar_bending	lumbar_rotation	arm_flex_r	arm_add_r	arm_rot_r	elbow_flex_r	pro_sup_r	arm_flex_l	arm_add_l	arm_rot_l	elbow_flex_l	pro_sup_l
     14.91666670	     -5.63822813	      0.51308504	      0.78738366	      0.84137895	      0.94898437	      0.72083680	     17.89757605	      2.13647073	      8.19293628	     20.26911044	      0.35376271	     11.28932307	     -1.69685998	     -7.49999987	     21.25315883	     -1.82428074	      0.78675250	     58.50978007	      1.02118831	     -7.82041438	    -14.54600138	     -7.49999987	    -18.80612060	      0.39791798	      2.50007040	      5.80396243	    -15.09452747	      5.48601151	     28.73308872	     73.86981034	      9.86731065	    -11.22596192	      6.33354543	     23.75889285	     70.92682759
     14.93333330	     -5.76639832	      1.10127170	      0.72186854	      0.83994141	      0.95722284	      0.72002582	     16.21796628	      1.24368892	      7.72792882	     18.78347399	      0.32783347	     11.65079167	     -0.11696113	     -7.49999987	     23.23341721	     -1.15703106	     -0.14944118	     56.31338359	      0.98285396	     -5.52767909	    -13.86256371	     -7.49999987	    -18.48340639	     -0.10705009	      3.61017706	      6.48664527	    -15.68594385	      7.15166124	     30.30702427	     73.92670619	      9.62109030	    -11.07833347	      7.11045630	     23.62563657	     71.48323644
     14.95000000	     -5.89247843	      1.60718498	      0.60931768	      0.83646932	      0.96258883	      0.72098814	     14.81392489	      0.57413759	      7.59089630	     17.63814734	      0.30784374	     11.87145084	      0.85629958	     -7.49999987	     24.97863040	     -0.71626654	     -1.14794894	     53.55157742	      0.93465135	     -3.60293671	    -13.04247797	     -7.49999987	    -18.39419889	     -0.57729075	      4.55579648	      7.40934587	    -15.86310698	      7.35542753	     31.50933663	     74.04215151	      9.12897995	    -10.90136678	      7.08393822	     23.84883749	     71.58107217
     14.96666670	     -5.67940166	      1.89168550	      0.49832556	      0.83205216	      0.96486802	      0.72241760	     13.43840745	      0.18621727	      7.29890087	     17.03436659	      0.29730578	     12.33730143	      1.93017499	     -7.49999987	     26.32896496	     -0.61428823	     -1.98497549	     50.63870217	      0.88381208	     -1.87006931	    -12.20654602	     -7.49999987	    -18.99192881	     -0.80793346	      5.58060709	      8.34082014	    -16.24049110	      7.76434045	     33.36043555	     74.06440689	      8.74587959	    -10.59232691	      6.76392055	     24.09825078	     71.54433426
     14.98333330	     -5.61905347	      2.12048131	      0.35338686	      0.82842634	      0.96618164	      0.72329714	     12.56618738	     -0.08204055	      7.14011281	     16.96467252	      0.29608939	     12.83871421	      2.56032873	     -7.49999987	     27.73787695	     -0.68270165	     -2.73867837	     47.44738230	      0.82811304	     -0.71400623	    -11.59951349	     -7.49999987	    -19.41990183	     -1.04102326	      6.38810231	      9.45362097	    -16.37571782	      8.02492077	     35.07058411	     73.55275518	      8.21005168	    -10.35399791	      6.38430052	     24.34119600	     71.01686051
     15.00000000	     -5.54178834	      2.27135161	      0.20414751	      0.82601315	      0.96823203	      0.72323662	     11.72366421	     -0.31590771	      6.81551961	     16.97492307	      0.29626830	     13.33349149	      3.36189784	     -7.49999987	     28.91399530	     -0.87670927	     -3.36565492	     43.86704619	      0.76562439	      0.24337700	    -10.78346459	     -7.49999987	    -19.79752653	     -1.15510523	      7.09988068	     10.64360209	    -16.50125884	      8.53434340	     36.67640762	     73.59546217	      7.74027932	    -10.03078219	      5.93828187	     24.23016344	     70.88494427
     15.01666670	     -5.46219914	      2.39909303	      0.10365296	      0.82482147	      0.96944033	      0.72295443	     10.66186031	     -0.56806043	      6.49089403	     16.58641856	      0.28948761	     13.63978706	      4.06829179	     -7.49999987	     29.84756806	     -1.06671071	     -3.78588671	     39.86892629	      0.69584403	      0.97778259	     -9.81653274	     -7.49999987	    -20.09251891	     -1.20849173	      7.69540758	     11.83144916	    -16.54688978	      9.04576472	     38.13164644	     73.65128809	      7.28313209	     -9.72113001	      5.46723979	     24.17421409	     70.73833815
     15.03333330	     -5.27938829	      2.47721781	      0.04339591	      0.82449213	      0.96753207	      0.72276129	      9.31322107	     -0.79368518	      6.21488963	     15.91680535	      0.27780066	     14.31709058	      4.90543415	     -7.49999987	     30.58497200	     -1.31616830	     -4.07579726	     35.69871719	      0.62306015	      1.90859142	     -8.28243168	     -7.49999987	    -20.49027964	     -1.23256980	      8.18341884	     12.96003580	    -16.55961600	      9.80947286	     39.66279818	     73.98501652	      6.89179061	     -9.34130771	      4.89840513	     24.00455058	     70.73953919
     15.05000000	     -4.90938322	      2.43316902	      0.14812050	      0.82411826	      0.96335754	      0.72211886	      7.65560905	     -0.88813411	      5.94520284	     15.10193797	      0.26357854	     15.54254075	      5.60611938	     -7.49999987	     31.24843573	     -1.56359216	     -4.01885179	     31.67750340	      0.55287673	      2.97022292	     -6.65994131	     -7.49999987	    -21.16042526	     -1.05884936	      7.91151807	     14.50277257	    -16.66516049	     12.00994214	     41.22008840	     74.47062759	      5.95294031	     -8.84853121	      2.15935307	     24.86473984	     70.46911591
     15.06666670	     -4.68277787	      2.41383799	      0.34825646	      0.82321737	      0.95895085	      0.72111871	      6.13883205	     -0.93469895	      5.79041450	     14.43804824	      0.25199148	     16.97646961	      6.07955195	     -7.49999987	     32.14836316	     -1.73395670	     -3.81272691	     27.78043421	      0.48486004	      4.23187078	     -4.91995777	     -7.49999987	    -21.47032517	     -0.93970851	      7.96900628	     15.47643942	    -16.47219175	     12.87010613	     42.12978617	     74.80983249	      5.54036790	     -8.54442286	      1.70502502	     24.87594812	     70.74165759
     15.08333330	     -4.49605725	      2.44284269	      0.67190631	      0.82136416	      0.95549417	      0.71957983	      4.55135025	     -0.94294814	      5.65784070	     13.93316383	      0.24317958	     18.09991447	      6.52500551	     -7.49999987	     33.04626439	     -1.75050492	     -3.35038340	     23.92222465	      0.41752158	      5.30183719	     -3.64979840	     -7.49999987	    -21.71231870	     -0.86795721	      7.77075605	     16.34789381	    -16.02505169	     13.38535045	     42.63992295	     74.74434785	      5.12319971	     -8.25542292	      1.22675511	     24.89640913	     70.59633311
     15.10000000	     -4.63694635	      2.55142713	      0.92922780	      0.81896686	      0.95229748	      0.71821624	      3.20767311	     -0.90954379	      6.03180238	     13.62357888	      0.23777631	     18.35886434	      6.75440277	     -7.49999987	     34.18529264	     -1.72217942	     -2.96783498	     20.21501960	      0.35281865	      6.31601405	     -2.23491793	     -7.49999987	    -21.42918974	     -0.95473243	      7.47105794	     17.43517816	    -15.59332550	     15.31415667	     42.32725393	     75.18929992	      4.81269743	     -7.93182174	      0.23473662	     24.20117146	     70.80605848
     15.11666670	     -4.77896087	      2.83673649	      1.25553423	      0.81799278	      0.94538671	      0.71743203	      1.84540601	     -1.02236550	      6.55287416	     13.57476796	      0.23692440	     18.12230733	      7.14613969	     -7.49999987	     35.38186963	     -1.42499038	     -2.33689729	     17.10639302	      0.29856288	      7.36938629	     -1.01109398	     -7.49999987	    -21.15556462	     -1.37423246	      7.28195170	     18.13721485	    -14.72416708	     15.83394380	     42.15996737	     75.23246962	      4.54451716	     -7.85124702	     -0.15600066	     23.78905801	     70.79098384
     15.13333330	     -4.91540968	      3.20880496	      1.64227318	      0.81821547	      0.93563626	      0.71713644	      0.70343198	     -1.24762375	      7.05635265	     14.01450489	      0.24459925	     18.37378151	      7.87048198	     -7.49999987	     36.88245347	     -0.97910725	     -1.44573182	     15.27853595	      0.26666076	      8.65690618	     -0.18967818	     -7.49999987	    -20.79816994	     -1.91602001	      6.79042452	     19.11340323	    -13.73386259	     17.23730342	     41.51463278	     75.36909781	      4.24331946	     -7.89572657	     -0.80675430	     23.12468895	     70.81613306
     15.15000000	     -5.03893763	      3.65638121	      1.86631176	      0.81831752	      0.92743246	      0.71741203	     -0.22265446	     -1.53676852	      7.86914647	     14.68099756	      0.25623174	     19.47001958	      8.21828967	     -7.49999987	     38.68573409	     -0.56769095	     -0.53392694	     15.09187410	      0.26340289	     10.30731546	      0.52384222	     -7.49999987	    -20.44867366	     -2.65122628	      5.61152065	     20.77904536	    -12.50543594	     20.64625984	     39.99976160	     75.51926515	      3.22747183	     -8.08564134	     -3.04607181	     23.31057720	     71.53120489
     15.16666670	     -4.90571138	      4.22120811	      1.94335011	      0.81909861	      0.92024829	      0.71812942	     -1.32987736	     -1.95355694	      8.75742075	     15.29718806	      0.26698630	     21.31608818	      8.15451036	     -7.49999987	     40.38641107	     -0.10048382	      0.47513478	     16.33849269	      0.28516049	     12.01895973	      0.49847697	     -7.49999987	    -20.48822281	     -3.65346491	      5.73471438	     20.91302892	    -11.69886690	     20.84096050	     40.11602321	     75.49303383	      3.03467683	     -8.32714515	     -3.16473151	     23.09283744	     71.53470101
